<?xml version="1.0"?>
<svg xmlns="http://www.w3.org/2000/svg" xmlns:xlink="http://www.w3.org/1999/xlink" version="1.1" viewBox="0 0 172 172" width="50px" height="50px"><g fill="none" fill-rule="nonzero" stroke="none" stroke-width="1" stroke-linecap="butt" stroke-linejoin="miter" stroke-miterlimit="10" stroke-dasharray="" stroke-dashoffset="0" font-family="none" font-weight="none" font-size="none" text-anchor="none" style="mix-blend-mode: normal"><path d="M0,172v-172h172v172z" fill="none"/><g fill="#ffffff"><g id="surface1"><path d="M143.19,37.04719c-13.69281,-11.01875 -35.35406,-12.88656 -36.28125,-12.95375c-1.43781,-0.12094 -2.80844,0.68531 -3.39969,2.01563c-0.05375,0.08062 -0.52406,1.16906 -1.04813,2.86219c9.05688,1.53188 20.18313,4.60906 30.24781,10.8575c1.6125,0.99438 2.10969,3.1175 1.11531,4.73c-0.65844,1.06156 -1.77375,1.63938 -2.92938,1.63938c-0.61812,0 -1.24969,-0.17469 -1.81406,-0.52406c-17.3075,-10.73656 -38.915,-11.27406 -43.08063,-11.27406c-4.16562,0 -25.78656,0.5375 -43.08062,11.27406c-1.6125,1.00781 -3.73563,0.51062 -4.73,-1.10188c-1.00781,-1.62594 -0.51063,-3.73562 1.10187,-4.74344c10.06469,-6.235 21.19094,-9.32562 30.24781,-10.84406c-0.52406,-1.70656 -0.99438,-2.78156 -1.03469,-2.87562c-0.60469,-1.33031 -1.96188,-2.16344 -3.41313,-2.01563c-0.92719,0.06719 -22.58844,1.935 -36.46937,13.10156c-7.24281,6.70531 -21.74188,45.88906 -21.74188,79.765c0,0.60469 0.16125,1.1825 0.45688,1.70656c9.9975,17.57625 37.28906,22.17187 43.51062,22.37344c0.02688,0 0.06719,0 0.1075,0c1.10188,0 2.13656,-0.52406 2.78156,-1.41094l6.28875,-8.65375c-16.97156,-4.38063 -25.63875,-11.825 -26.13594,-12.26844c-1.42438,-1.24969 -1.55875,-3.42656 -0.29563,-4.85094c1.24969,-1.42437 3.42656,-1.55875 4.85094,-0.30906c0.20156,0.18812 16.16531,13.73312 47.55531,13.73312c31.44375,0 47.4075,-13.59875 47.56875,-13.73312c1.42438,-1.23625 3.58781,-1.11531 4.85094,0.3225c1.24969,1.42437 1.11531,3.58781 -0.30906,4.8375c-0.49719,0.44344 -9.16438,7.88781 -26.13594,12.26844l6.28875,8.65375c0.645,0.88687 1.67969,1.41094 2.78156,1.41094c0.04031,0 0.08063,0 0.1075,0c6.22156,-0.20156 33.51313,-4.79719 43.51063,-22.37344c0.29562,-0.52406 0.45687,-1.10188 0.45687,-1.70656c0,-33.87594 -14.49906,-73.05969 -21.93,-79.91281zM63.64,103.2c-6.65156,0 -12.04,-6.15437 -12.04,-13.76c0,-7.60562 5.38844,-13.76 12.04,-13.76c6.65156,0 12.04,6.15438 12.04,13.76c0,7.60563 -5.38844,13.76 -12.04,13.76zM108.36,103.2c-6.65156,0 -12.04,-6.15437 -12.04,-13.76c0,-7.60562 5.38844,-13.76 12.04,-13.76c6.65156,0 12.04,6.15438 12.04,13.76c0,7.60563 -5.38844,13.76 -12.04,13.76z"/></g></g></g></svg>
