<?xml version="1.0"?>
<svg xmlns="http://www.w3.org/2000/svg" xmlns:xlink="http://www.w3.org/1999/xlink" version="1.1" viewBox="0 0 172 172" width="50px" height="50px"><g fill="none" fill-rule="nonzero" stroke="none" stroke-width="1" stroke-linecap="butt" stroke-linejoin="miter" stroke-miterlimit="10" stroke-dasharray="" stroke-dashoffset="0" font-family="none" font-weight="none" font-size="none" text-anchor="none" style="mix-blend-mode: normal"><path d="M0,172v-172h172v172z" fill="none"/><g fill="#ffffff"><g id="surface1"><path d="M89.42656,165.12c-43.63156,0 -79.13344,-35.48844 -79.13344,-79.12c0,-43.63156 35.50187,-79.12 79.13344,-79.12c19.76656,0 38.68656,7.32344 53.29312,20.62656l2.66063,2.43219l-26.09563,26.09563l-2.41875,-2.06938c-7.65937,-6.5575 -17.40156,-10.17219 -27.43937,-10.17219c-23.27375,0 -42.22063,18.93344 -42.22063,42.20719c0,23.27375 18.94688,42.20719 42.22063,42.20719c16.78344,0 30.04625,-8.57312 36.29469,-23.17969h-39.73469v-35.62281l77.57469,0.1075l0.57781,2.72781c4.04469,19.20219 0.80625,47.44781 -15.5875,67.65781c-13.57188,16.72969 -33.45938,25.22219 -59.125,25.22219z"/></g></g></g></svg>
