<?xml version="1.0" encoding="iso-8859-1"?>
<!-- Generator: Adobe Illustrator 19.0.0, SVG Export Plug-In . SVG Version: 6.00 Build 0)  -->
<svg version="1.1" id="Capa_1" xmlns="http://www.w3.org/2000/svg" xmlns:xlink="http://www.w3.org/1999/xlink" x="0px" y="0px"
	 viewBox="0 0 58 58" style="enable-background:new 0 0 58 58;" xml:space="preserve">
<path style="fill:#CBD4D8;" d="M13.5,21c-0.87,0-1.709-0.132-2.5-0.375V32h5V20.625C15.209,20.868,14.37,21,13.5,21z"/>
<path style="fill:#DD352E;" d="M35,32h-8v-2.176C27,28.817,27.817,28,28.824,28h4.351C34.183,28,35,28.817,35,29.824V32z"/>
<path style="fill:#EBBA16;" d="M48,32h-8v-2.176C40,28.817,40.817,28,41.824,28h4.351C47.183,28,48,28.817,48,29.824V32z"/>
<rect y="38" style="fill:#283238;" width="58" height="8"/>
<path style="fill:#38454F;" d="M56,38c-0.258-3.343-3.068-6-6.475-6H8.475C5.068,32,2.258,34.657,2,38H56z"/>
<path style="fill:none;stroke:#546A79;stroke-width:2;stroke-miterlimit:10;" d="M10,44v4v-1c0,2.211,1.789,4,4,4h10
	c1.658,0,3,1.342,3,3"/>
<circle style="fill:#DD352E;" cx="13.5" cy="12.5" r="8.5"/>
<path style="fill:#ED7161;" d="M9,14c-0.552,0-1-0.447-1-1c0-3.309,2.691-6,6-6c0.552,0,1,0.447,1,1s-0.448,1-1,1
	c-2.206,0-4,1.794-4,4C10,13.553,9.552,14,9,14z"/>
<g>
</g>
<g>
</g>
<g>
</g>
<g>
</g>
<g>
</g>
<g>
</g>
<g>
</g>
<g>
</g>
<g>
</g>
<g>
</g>
<g>
</g>
<g>
</g>
<g>
</g>
<g>
</g>
<g>
</g>
</svg>
