<svg height="512pt" viewBox="0 0 512 512" width="512pt" xmlns="http://www.w3.org/2000/svg"><path d="m402 156h60v246h-60zm0 0" fill="#96c8ef"/><path d="m462 126v30h-60v-30c0-16.785156 13.6875-30 30-30 16.558594 0 30 13.4375 30 30zm0 0" fill="#eafaff"/><path d="m402 402h60c0 25.960938-8.421875 51.230469-24 72l-6 8-6-8c-15.578125-20.769531-24-46.039062-24-72zm0 0" fill="#eafaff"/><path d="m432 56c-11.050781 0-20 8.949219-20 20v27.640625l.011719.007813h39.976562l.011719-.007813v-27.640625c0-11.050781-8.949219-20-20-20zm0 0" fill="#96c8ef"/><path d="m322 90h-292c-11.050781 0-20 8.949219-20 20v372c0 11.050781 8.949219 20 20 20h292c11.050781 0 20-8.949219 20-20v-372c0-11.050781-8.949219-20-20-20zm0 0" fill="#3a5576"/><path d="m302 382v80h-80zm0 0" fill="#ffa545"/><path d="m50 130v332h172l80-80v-252c-10.941406 0-240.609375 0-252 0zm0 0" fill="#fff6d2"/><path d="m302 382-80 80v-80zm0 0" fill="#ffea91"/><path d="m262 90v40h-172v-40c0-11.050781 8.949219-20 20-20h31.558594c-3.4375-5.910156-5.558594-12.679688-5.558594-20 0-22.058594 17.941406-40 40-40s40 17.941406 40 40c0 7.320312-2.121094 14.089844-5.558594 20h31.558594c11.050781 0 20 8.949219 20 20zm0 0" fill="#96c8ef"/><path d="m176 60c5.519531 0 10-4.480469 10-10s-4.480469-10-10-10-10 4.480469-10 10 4.480469 10 10 10zm0 0"/><path d="m110 206c5.519531 0 10-4.480469 10-10s-4.480469-10-10-10-10 4.480469-10 10 4.480469 10 10 10zm0 0"/><path d="m482 146h-10v-20c0-9.835938-3.539062-19.128906-10-26.4375v-23.5625c0-16.542969-13.457031-30-30-30s-30 13.457031-30 30v23.574219c-6.398438 7.25-10 16.644531-10 26.425781v276c0 49.902344 28.582031 80.714844 30 83.332031v16.667969c0 5.523438 4.476562 10 10 10s10-4.476562 10-10v-16.667969c1.414062-2.613281 30-33.164062 30-83.332031v-236h10c5.515625 0 10 4.484375 10 10v80c0 5.523438 4.476562 10 10 10s10-4.476562 10-10v-80c0-16.542969-13.457031-30-30-30zm-70-20c0-10.980469 8.945312-20 20-20 10.769531 0 20 8.710938 20 20v20h-40zm20-60c5.515625 0 10 4.484375 10 10v11.28125c-3.238281-.839844-6.597656-1.28125-10-1.28125-3.40625 0-6.761719.441406-10 1.277344v-11.277344c0-5.515625 4.484375-10 10-10zm0 399.242188c-11.003906-15.675782-17.769531-34.199219-19.535156-53.253907h39.070312c-1.765625 19.054688-8.53125 37.578125-19.535156 53.253907zm20-73.242188h-40v-226h40zm0 0"/><path d="m322 512c16.542969 0 30-13.457031 30-30v-372c0-16.542969-13.457031-30-30-30h-51.71875c-4.128906-11.640625-15.246094-20-28.28125-20h-17.046875c.695313-3.277344 1.046875-6.617188 1.046875-10 0-27.570312-22.429688-50-50-50s-50 22.429688-50 50c0 3.382812.351562 6.722656 1.046875 10h-17.046875c-13.035156 0-24.152344 8.359375-28.28125 20h-51.71875c-16.542969 0-30 13.457031-30 30v372c0 16.542969 13.457031 30 30 30zm-30-105.855469v45.855469h-45.855469zm-60 31.710938v-45.855469h45.855469zm60-65.855469h-70c-5.523438 0-10 4.476562-10 10v70h-152v-312h232zm-182-292h31.558594c3.582031 0 6.886718-1.914062 8.671875-5.015625 1.78125-3.101563 1.773437-6.921875-.027344-10.015625-2.789063-4.789062-4.203125-9.828125-4.203125-14.96875 0-16.542969 13.457031-30 30-30s30 13.457031 30 30c0 5.140625-1.414062 10.179688-4.203125 14.96875-1.800781 3.09375-1.8125 6.914062-.027344 10.015625 1.785157 3.105469 5.089844 5.015625 8.671875 5.015625h31.558594c5.515625 0 10 4.484375 10 10v30h-152v-30c0-5.515625 4.484375-10 10-10zm-90 402v-372c0-5.515625 4.484375-10 10-10h50v20h-30c-5.523438 0-10 4.476562-10 10v332c0 5.523438 4.476562 10 10 10h252c5.523438 0 10-4.476562 10-10 0-33.945312 0-251.265625 0-332 0-5.523438-4.476562-10-10-10h-30v-20h50c5.515625 0 10 4.484375 10 10v372c0 5.515625-4.484375 10-10 10h-292c-5.515625 0-10-4.484375-10-10zm0 0"/><path d="m242 186h-92c-5.523438 0-10 4.476562-10 10s4.476562 10 10 10h92c5.523438 0 10-4.476562 10-10s-4.476562-10-10-10zm0 0"/><path d="m242 292h-132c-5.523438 0-10 4.476562-10 10s4.476562 10 10 10h132c5.523438 0 10-4.476562 10-10s-4.476562-10-10-10zm0 0"/><path d="m242 332h-132c-5.523438 0-10 4.476562-10 10s4.476562 10 10 10h132c5.523438 0 10-4.476562 10-10s-4.476562-10-10-10zm0 0"/><path d="m242 252h-132c-5.523438 0-10 4.476562-10 10s4.476562 10 10 10h132c5.523438 0 10-4.476562 10-10s-4.476562-10-10-10zm0 0"/></svg>