<?xml version="1.0"?>
<svg xmlns="http://www.w3.org/2000/svg" xmlns:xlink="http://www.w3.org/1999/xlink" version="1.1" viewBox="0 0 172 172" width="50px" height="50px"><g fill="none" fill-rule="nonzero" stroke="none" stroke-width="1" stroke-linecap="butt" stroke-linejoin="miter" stroke-miterlimit="10" stroke-dasharray="" stroke-dashoffset="0" font-family="none" font-weight="none" font-size="none" text-anchor="none" style="mix-blend-mode: normal"><path d="M0,172v-172h172v172z" fill="none"/><g fill="#ffffff"><path d="M41.28,10.32c-17.0624,0 -30.96,13.8976 -30.96,30.96v46.03015l46.16453,23.07891c1.72,0.7912 2.4776,2.85547 1.6864,4.57547c-0.5848,1.2728 -1.82374,1.99547 -3.13094,1.99547c-0.4816,0 -0.96293,-0.10266 -1.44453,-0.30906l-43.27547,-21.64109v35.71015c0,17.0624 13.8976,30.96 30.96,30.96h89.44c17.0624,0 30.96,-13.8976 30.96,-30.96v-89.44c0,-17.0624 -13.8976,-30.96 -30.96,-30.96zM41.28,17.2h89.44c13.2784,0 24.08,10.8016 24.08,24.08v89.44c0,13.2784 -10.8016,24.08 -24.08,24.08h-89.44c-13.2784,0 -24.08,-10.8016 -24.08,-24.08v-24.56375l13.82719,6.9136c-0.0344,0.7224 -0.06719,1.44775 -0.06719,2.17015c0,14.2416 11.5584,25.8 25.8,25.8c14.2416,0 25.8,-11.5584 25.8,-25.8c0,-2.924 -0.48133,-5.78162 -1.44453,-8.49922l16.34,-12.31547c3.4744,1.2728 7.12053,1.89469 10.90453,1.89469c18.0256,0 32.68,-14.6544 32.68,-32.68c0,-18.0256 -14.6544,-32.68 -32.68,-32.68c-18.0256,0 -32.68,14.6544 -32.68,32.68c0,3.8528 0.65467,7.6024 1.96187,11.18l-11.87203,16.23922c-2.8552,-1.0664 -5.91385,-1.61922 -9.00985,-1.61922c-5.9856,0 -11.48745,2.02906 -15.85625,5.46906l-23.70375,-11.83172v-41.79735c0,-13.2784 10.8016,-24.08 24.08,-24.08zM108.36,37.84c14.2416,0 25.8,11.5584 25.8,25.8c0,14.2416 -11.5584,25.8 -25.8,25.8c-3.5432,0 -6.91413,-0.68665 -10.04453,-2.06265c-1.1352,-0.516 -2.4424,-0.34615 -3.44,0.37625l-20.02187,15.10375c-1.3072,0.9976 -1.71597,2.75361 -1.02797,4.23281c1.2384,2.5456 1.85437,5.29465 1.85437,8.14985c0,10.4232 -8.4968,18.92 -18.92,18.92c-9.976,0 -18.23361,-7.81175 -18.85281,-17.65015l12.62453,6.29547l0.1075,0.04031l0.06719,0.03359c1.376,0.6536 2.82,0.96078 4.3336,0.96078c4.0248,0 7.70802,-2.34 9.35922,-5.9864c2.3736,-5.1256 0.16635,-11.21682 -4.92485,-13.65922l-11.44875,-5.70422c2.6144,-1.376 5.56957,-2.17015 8.73437,-2.17015c3.0272,0 5.9168,0.68665 8.6,2.06265c1.5136,0.7912 3.36959,0.34803 4.36719,-1.02797l10.66266,-14.5864l3.92375,-5.43547c0.7224,-0.9632 0.89225,-2.27121 0.37625,-3.40641c-1.4104,-3.2336 -2.12985,-6.7088 -2.12985,-10.2864c0,-14.2416 11.5584,-25.8 25.8,-25.8zM108.36,44.72c-10.40848,0 -18.92,8.51152 -18.92,18.92c0,10.40848 8.51152,18.92 18.92,18.92c10.40848,0 18.92,-8.51152 18.92,-18.92c0,-10.40848 -8.51152,-18.92 -18.92,-18.92zM108.36,51.6c6.69025,0 12.04,5.34975 12.04,12.04c0,6.69025 -5.34975,12.04 -12.04,12.04c-6.69025,0 -12.04,-5.34975 -12.04,-12.04c0,-6.69025 5.34975,-12.04 12.04,-12.04z"/></g></g></svg>
